<?xml version="1.0" encoding="utf-8"?>
<!-- Generator: Adobe Illustrator 22.0.1, SVG Export Plug-In . SVG Version: 6.00 Build 0)  -->
<svg version="1.1" id="Calque_1" xmlns="http://www.w3.org/2000/svg" xmlns:xlink="http://www.w3.org/1999/xlink" x="0px" y="0px"
	 viewBox="0 0 482.3 139.9" style="enable-background:new 0 0 482.3 139.9;" xml:space="preserve">
<style type="text/css">
	.st0{fill:#DF9E6F;stroke:#F1F1F2;stroke-miterlimit:10;}
	.st1{fill:#F0735F;stroke:#F1F1F2;stroke-miterlimit:10;}
	.st2{fill:#F59E75;stroke:#F1F1F2;stroke-miterlimit:10;}
	.st3{fill:#FCE07C;stroke:#F1F1F2;stroke-miterlimit:10;}
	.st4{fill:#219D95;stroke:#F1F1F2;stroke-miterlimit:10;}
	.st5{fill:#66CAE8;stroke:#F1F1F2;stroke-miterlimit:10;}
	.st6{fill:#D2DC78;stroke:#F1F1F2;stroke-miterlimit:10;}
	.st7{fill:#32B68D;stroke:#F1F1F2;stroke-miterlimit:10;}
	.st8{fill:#89C088;stroke:#F1F1F2;stroke-miterlimit:10;}
	.st9{fill:#FFFFFF;}
	.st10{fill:url(#SVGID_1_);}
	.st11{fill:url(#SVGID_2_);}
	.st12{fill:url(#SVGID_3_);}
	.st13{fill:url(#SVGID_4_);}
	.st14{fill:url(#SVGID_5_);}
	.st15{fill:url(#SVGID_6_);}
	.st16{fill:url(#SVGID_7_);}
	.st17{fill:url(#SVGID_8_);}
	.st18{fill:url(#SVGID_9_);}
	.st19{fill:#313131;}
</style>
<g>
	<g>
		<path class="st0" d="M72.3,126.8l0.3,0.5l3.9-43.2l-24,35.7C53.6,120.6,62.7,126,72.3,126.8z"/>
		<path class="st1" d="M89.1,110.9c0,0,6.6-2.2,11.5-10L76.5,84.2l13.7,29.1L89.1,110.9z"/>
		<path class="st2" d="M73,128.2c0,0,15.8-0.4,22-4.2l-4.9-10.7L76.5,84.2l-3.9,43.2L73,128.2z"/>
		<path class="st3" d="M57.4,112l-5,7.8c0,0,0,0,0.1,0.1l24-35.7L45.2,99.2C45.9,100.5,50.3,108.3,57.4,112z"/>
		<path class="st4" d="M81.8,15.7c0,0-13.5-2.2-34.6,6l-2.3-3.6l31.6,66l5-64.4L81.8,15.7z"/>
		<path class="st5" d="M80.9,31.7l0.7-11.9l-5,64.4l29.8-43C106.4,41.2,93.9,32.8,80.9,31.7z"/>
		<path class="st6" d="M16.2,79.7l15.5,1.1c0,0,0.2,15.5,4.5,22.6l8.8-4.3c0,0,0,0.1,0.1,0.2l31.3-15.1l-60.3-4.6
			C16.2,79.6,16.2,79.6,16.2,79.7z"/>
		<path class="st7" d="M43.1,15.3c0,0-15.9,6.3-30.5,26l13.9,9.3l50,33.6l-31.6-66L43.1,15.3z"/>
		<path class="st8" d="M16.2,79.5l60.3,4.6l-50-33.6C26.5,50.6,16.7,63.6,16.2,79.5z"/>
	</g>
	<g>
		<path class="st9" d="M62.7,70.4c5.4-8.4,16.6-10.8,25-5.4c8.4,5.4,10.8,16.6,5.4,25c-5.4,8.4-16.6,10.8-25,5.4
			C59.7,89.9,57.3,78.8,62.7,70.4z"/>
		<g>
			<path class="st9" d="M65.8,72.4c4.4-6.8,13.4-8.8,20.2-4.4c6.8,4.4,8.8,13.4,4.4,20.2C86.1,95,77,96.9,70.2,92.6
				C63.4,88.2,61.5,79.2,65.8,72.4z"/>
		</g>
		<g>
			
				<radialGradient id="SVGID_1_" cx="766.2962" cy="1011.1474" r="13.241" gradientTransform="matrix(-0.9906 -0.6361 0.6369 -0.9893 192.9746 1567.9056)" gradientUnits="userSpaceOnUse">
				<stop  offset="0" style="stop-color:#3E3E3F"/>
				<stop  offset="1" style="stop-color:#231F20"/>
			</radialGradient>
			<path class="st10" d="M86.3,67c7.3,4.6,9.4,14.3,4.7,21.5c-4.6,7.2-14.3,9.4-21.5,4.7c-7.3-4.6-9.4-14.3-4.7-21.5
				C69.4,64.5,79,62.4,86.3,67z"/>
		</g>
	</g>
</g>
<g>
	
		<radialGradient id="SVGID_2_" cx="281.0652" cy="112.0237" r="10.467" gradientTransform="matrix(1.1777 0 0 1.1761 -223.7498 -51.5364)" gradientUnits="userSpaceOnUse">
		<stop  offset="0" style="stop-color:#3E3E3F"/>
		<stop  offset="1" style="stop-color:#231F20"/>
	</radialGradient>
	<path class="st11" d="M116.2,73.9c0,2-0.5,3.7-1.6,5.1c-1.1,1.4-2.6,2.4-4.5,2.9c-1.1,0.3-3.1,0.5-6,0.5v12.7h-5.7V65.2h6.1
		c2.6,0,4.6,0.2,5.9,0.5c2.1,0.5,3.6,1.6,4.6,3.3C115.7,70.4,116.2,72,116.2,73.9z M110.6,73.9c0-1.2-0.4-2-1.3-2.5
		c-0.7-0.4-1.9-0.6-3.6-0.6h-1.6v6.1h1.8c2.3,0,3.7-0.4,4.3-1.3C110.5,75.2,110.6,74.6,110.6,73.9z"/>
	
		<radialGradient id="SVGID_3_" cx="300.3299" cy="112.0237" r="10.2526" gradientTransform="matrix(1.1777 0 0 1.1761 -223.7498 -51.5364)" gradientUnits="userSpaceOnUse">
		<stop  offset="0" style="stop-color:#3E3E3F"/>
		<stop  offset="1" style="stop-color:#231F20"/>
	</radialGradient>
	<path class="st12" d="M138.1,95.2h-16.4V65.2h16.4v5.6h-10.7v5.5h10.7v5.5h-10.7v7.9h10.7V95.2z"/>
	
		<radialGradient id="SVGID_4_" cx="320.2799" cy="112.0237" r="10.6892" gradientTransform="matrix(1.1777 0 0 1.1761 -223.7498 -51.5364)" gradientUnits="userSpaceOnUse">
		<stop  offset="0" style="stop-color:#3E3E3F"/>
		<stop  offset="1" style="stop-color:#231F20"/>
	</radialGradient>
	<path class="st13" d="M163.1,95.2h-6.2l-6.8-12.7h-0.5v12.7h-5.7V65.2h6.1c2.7,0,4.6,0.2,5.9,0.5c2,0.5,3.6,1.6,4.6,3.3
		c0.9,1.4,1.3,3,1.3,4.9c0,3.9-1.9,6.6-5.7,7.9L163.1,95.2z M156.1,73.9c0-1.4-0.6-2.3-1.9-2.8c-0.6-0.2-1.6-0.3-3.1-0.3h-1.6v6.1
		h1.8c1.5,0,2.6-0.1,3.2-0.4C155.6,76,156.1,75.2,156.1,73.9z"/>
	
		<radialGradient id="SVGID_5_" cx="342.5571" cy="112.0237" r="12.4905" gradientTransform="matrix(1.1777 0 0 1.1761 -223.7498 -51.5364)" gradientUnits="userSpaceOnUse">
		<stop  offset="0" style="stop-color:#3E3E3F"/>
		<stop  offset="1" style="stop-color:#231F20"/>
	</radialGradient>
	<path class="st14" d="M194.1,95.2h-5.9l-2.3-6.2h-12.2l-2.5,6.2h-5.9l11.5-29.9h5.8L194.1,95.2z M183.7,83.5l-4-10.3l-4,10.3H183.7
		z"/>
	
		<radialGradient id="SVGID_6_" cx="363.0933" cy="112.0237" r="10.2787" gradientTransform="matrix(1.1777 0 0 1.1761 -223.7498 -51.5364)" gradientUnits="userSpaceOnUse">
		<stop  offset="0" style="stop-color:#3E3E3F"/>
		<stop  offset="1" style="stop-color:#231F20"/>
	</radialGradient>
	<path class="st15" d="M212.1,70.8h-5.5v24.3h-5.8V70.8h-5.3v-5.6h16.5V70.8z"/>
	
		<radialGradient id="SVGID_7_" cx="375.5078" cy="112.0237" r="9.1593" gradientTransform="matrix(1.1777 0 0 1.1761 -223.7498 -51.5364)" gradientUnits="userSpaceOnUse">
		<stop  offset="0" style="stop-color:#3E3E3F"/>
		<stop  offset="1" style="stop-color:#231F20"/>
	</radialGradient>
	<path class="st16" d="M221.3,95.2h-5.7V65.2h5.7V95.2z"/>
	
		<radialGradient id="SVGID_8_" cx="395.3277" cy="112.0228" r="13.2925" gradientTransform="matrix(1.1777 0 0 1.1761 -223.7498 -51.5364)" gradientUnits="userSpaceOnUse">
		<stop  offset="0" style="stop-color:#3E3E3F"/>
		<stop  offset="1" style="stop-color:#231F20"/>
	</radialGradient>
	<path class="st17" d="M257.4,80.3c0,4.4-1.5,8-4.5,11.1c-3,3-6.6,4.5-11,4.5c-4.4,0-8.1-1.5-11.1-4.6c-3-3-4.5-6.8-4.5-11.2
		c0-2.8,0.7-5.5,2.1-7.9c1.4-2.4,3.3-4.3,5.7-5.7c2.4-1.4,5-2.1,7.8-2.1c4.3,0,8,1.6,11,4.7C255.9,72.2,257.4,76,257.4,80.3z
		 M251.7,80.3c0-2.8-0.9-5.2-2.8-7.2c-1.9-2-4.3-3-7.1-3c-2.9,0-5.2,1-7.1,3c-1.8,1.9-2.7,4.4-2.7,7.3c0,3.3,1.2,5.9,3.6,7.9
		c1.8,1.5,4,2.3,6.4,2.3c2.8,0,5.1-1,7-3C250.8,85.5,251.7,83.1,251.7,80.3z"/>
	
		<radialGradient id="SVGID_9_" cx="423.3297" cy="112.0237" r="11.5327" gradientTransform="matrix(1.1777 0 0 1.1761 -223.7498 -51.5364)" gradientUnits="userSpaceOnUse">
		<stop  offset="0" style="stop-color:#3E3E3F"/>
		<stop  offset="1" style="stop-color:#231F20"/>
	</radialGradient>
	<path class="st18" d="M286.8,95.2h-5.5l-12.8-19.6v19.6h-5.7V65.2h5.5l12.9,19.7V65.2h5.7V95.2z"/>
	<path class="st19" d="M326.5,73.2c0,4.1-2,6.6-6,7.6c-1.4,0.3-3.9,0.5-7.6,0.5h-2.1v13.9h-3V65.2h6c3.4,0,5.7,0.1,6.9,0.4
		c1.8,0.4,3.2,1.3,4.3,2.7C326,69.7,326.5,71.3,326.5,73.2z M323.4,73.2c0-1-0.3-1.9-0.8-2.7c-0.5-0.8-1.3-1.4-2.2-1.8
		c-0.9-0.4-2.4-0.5-4.4-0.5h-5.3v10.1l5.1,0.1c3.4,0,5.7-0.7,6.8-2.4C323.1,75.2,323.4,74.3,323.4,73.2z"/>
	<path class="st19" d="M362.7,80.2c0,4.4-1.5,8.1-4.6,11.2c-3,3-6.8,4.6-11.2,4.6c-4.4,0-8.2-1.5-11.2-4.5c-3.1-3-4.6-6.7-4.6-11.1
		c0-2.8,0.7-5.5,2.1-8c1.4-2.5,3.3-4.4,5.7-5.8c2.4-1.4,5-2.1,7.8-2.1c4.5,0,8.3,1.5,11.3,4.5C361.2,72,362.7,75.7,362.7,80.2z
		 M359.7,80.2c0-4.9-2.1-8.6-6.3-11c-2-1.1-4.2-1.7-6.4-1.7c-2.2,0-4.4,0.6-6.3,1.7c-2,1.2-3.5,2.7-4.6,4.7c-1.1,2-1.7,4.1-1.7,6.5
		c0,3.5,1.2,6.5,3.6,9c2.4,2.5,5.4,3.7,9,3.7c2.3,0,4.5-0.6,6.4-1.7c2-1.1,3.5-2.6,4.6-4.6C359.1,84.8,359.7,82.6,359.7,80.2z"/>
	<path class="st19" d="M388.1,95.2h-3.7l-10.8-13.9h-1.7v13.9h-3V65.2h6c3.3,0,5.6,0.1,6.8,0.4c1.8,0.4,3.3,1.3,4.4,2.7
		c1.1,1.4,1.6,3,1.6,4.9c0,3.4-1.5,5.8-4.5,7.1c-1.4,0.6-3.4,1-5.9,1L388.1,95.2z M384.6,73.2c0-1-0.3-1.9-0.8-2.7
		c-0.5-0.8-1.2-1.4-2.1-1.8c-0.9-0.4-2.4-0.5-4.4-0.5h-5.3v10.1l5.2,0c3.4,0,5.7-0.8,6.7-2.4C384.3,75.2,384.6,74.2,384.6,73.2z"/>
	<path class="st19" d="M407.5,68.2h-6.7v27h-3v-27h-6.7v-2.9h16.4V68.2z"/>
	<path class="st19" d="M438.1,95.2h-3.2l-4.7-9.9h-12.9l-4.7,9.9h-3.3l14.2-29.9h0.7L438.1,95.2z M428.8,82.4l-5.1-10.8l-5.2,10.8
		H428.8z"/>
	<path class="st19" d="M457.2,95.2h-14.5V65.2h3v27h11.5V95.2z"/>
</g>
<path class="st9" d="M77.9,69.9c-2.9,0-5.2,1-7.1,3c-1.8,1.9-2.7,4.4-2.7,7.3c0,3.3,1.2,5.9,3.6,7.9c1.8,1.5,4,2.3,6.4,2.3
	c2.8,0,5.1-1,7-3c1.8-2,2.8-4.3,2.8-7.2c0-2.8-0.9-5.2-2.8-7.2C83,70.9,80.7,69.9,77.9,69.9z"/>
</svg>
